# xmcd
#
# Track frame offsets: 
#        150
#        15403
#        30151
#        44552
#        58617
#        73013
#        85303
#        97622
#        112349
#        125601
#        140071
#        154596
#        168052
#        185722
#        198929
#        212006
#        225845
#        238903
#        253009
#        267900
#        281242
#        294816
#        308278
#        320680
#        335064
#
# Disc length: 4661 seconds
#
# Revision: 0
# Processed by: cddbd v1.5.2PL0 Copyright (c) Steve Scherf et al.
# Submitted via: ExactAudioCopyFreeDBPlugin 1.0
#
DISCID=62123319
DTITLE=Various Artist - I've Got The Blues, But I'm Too Damn Mean To 
DTITLE=Cry [CD4)
DYEAR=2015
DGENRE=Blues
TTITLE0=Martha Copeland - Hobo Bill
TTITLE1=Martha Copeland - Dyin' Crapshooter's Blues
TTITLE2=Blind Willie McTell - Dying Crapshooter's Blues
TTITLE3=Jazz Gillum - Sarah Jane
TTITLE4=Maggie Jones - North Bound Blues
TTITLE5=James 'Iron Head' Baker - Go Down Old Hannah
TTITLE6=Vera Hall - Been Drinking
TTITLE7=Vera Hall - Poor Lazarus
TTITLE8=Tampa Red - Cotton Seed Blues
TTITLE9=Paramount Jubilee Singers - I Couldn't Hear Nobody Pray - Take
TTITLE9=2
TTITLE10=Memphis Jug Band - He's In The Jailhouse Now
TTITLE11=Will Bennett - Railroad Bill
TTITLE12=Josie Miles - Mad Mama's Blues
TTITLE13=Blind Lemon Jefferson - Dynamite Blues
TTITLE14=Bessie Tucker - Key To The Bushes Blues
TTITLE15=Jack Kelly and His South Memphis Jug Band - Red Ripe Tomatoes
TTITLE16=Texas Alexander - Justice Blues
TTITLE17=Clara Smith - Nobody Knows The Way I Feel Dis Mornin'
TTITLE18=Edna Winston - Pail In My Hand
TTITLE19=Clara Smith - The Basement Blues
TTITLE20=Helen Gross - Workin' Woman's Blues
TTITLE21=Sylvester Palmer - Broke Man Blues
TTITLE22=Hattie Burleson - Sadie's Servant Room Blues
TTITLE23=Lucille Bogan - Red Cross Man
TTITLE24=Washboard Sam - Life Is Just A Book
EXTD=
EXTT0=
EXTT1=
EXTT2=
EXTT3=
EXTT4=
EXTT5=
EXTT6=
EXTT7=
EXTT8=
EXTT9=
EXTT10=
EXTT11=
EXTT12=
EXTT13=
EXTT14=
EXTT15=
EXTT16=
EXTT17=
EXTT18=
EXTT19=
EXTT20=
EXTT21=
EXTT22=
EXTT23=
EXTT24=
PLAYORDER=
